# xmcd
#
# Track frame offsets: 
#        150
#        13885
#        25630
#        37882
#        50090
#        62910
#        77847
#        88450
#        102295
#        115450
#        142695
#        155722
#
# Disc length: 2382 seconds
#
# Revision: 3
# Processed by: cddbd v1.5.2PL0 Copyright (c) Steve Scherf et al.
# Submitted via: ExactAudioCopy v0.95b4
#
DISCID=9f094c0c
DTITLE=Various Artist - The Story Of The Blues
DYEAR=1988
DGENRE=Blues
TTITLE0=Muddy Waters - I'm Ready
TTITLE1=Howlin' Wolf - The Sun Is Rising
TTITLE2=Otis Spann - I'm In Love With You, Baby
TTITLE3=Johnny Otis - I Believe I'll Go Back Home
TTITLE4=John Lee Hooker - Hobo Blues
TTITLE5=Lightnin' Hopkins - Mojo Hand
TTITLE6=B.B. King - Recession Blues
TTITLE7=Willie Mabon - Willie's Blues
TTITLE8=Big Bill Broozy - Backwater Blues
TTITLE9=Sonny Terry and Brownie McGhee - Blowin' The Fuses
TTITLE10=Albert King - Be On Your Merry Way
TTITLE11=Big Joe Turner - In The Evening
EXTD=
EXTT0=
EXTT1=
EXTT2=
EXTT3=
EXTT4=
EXTT5=
EXTT6=
EXTT7=
EXTT8=
EXTT9=
EXTT10=
EXTT11=
PLAYORDER=
